<svg width="32" height="32" viewBox="0 0 48 48" fill="none" xmlns="http://www.w3.org/2000/svg">
  <!-- Medium detail version for 32x32 -->
  <defs>
    <linearGradient id="logoGradient32" x1="0%" y1="0%" x2="100%" y2="100%">
      <stop offset="0%" style="stop-color:#3B82F6;stop-opacity:1" />
      <stop offset="100%" style="stop-color:#1E40AF;stop-opacity:1" />
    </linearGradient>
  </defs>

  <!-- Main circle background -->
  <circle cx="24" cy="24" r="22" fill="url(#logoGradient32)" />

  <!-- Image/photo icon -->
  <rect x="11" y="15" width="26" height="18" rx="2" fill="white" opacity="0.9" />
  <rect x="12" y="16" width="24" height="16" rx="2" fill="none" stroke="#1E40AF" stroke-width="1.5" />

  <!-- Simple landscape -->
  <path d="M12 28 L18 23 L24 26 L30 21 L36 26 V30 H12 Z" fill="#E5E7EB" opacity="0.6" />

  <!-- Strike-through line -->
  <line x1="8" y1="8" x2="40" y2="40" stroke="#EF4444" stroke-width="3" stroke-linecap="round" opacity="0.8" />
  <line x1="8" y1="8" x2="40" y2="40" stroke="white" stroke-width="1.5" stroke-linecap="round" />

  <!-- Shield -->
  <path d="M37 12 L41 12 C41.5 12 42 12.5 42 13 L42 16 C42 18.5 40.5 20.8 38.2 22.1 L37 22.8 L35.8 22.1 C33.5 20.8 32 18.5 32 16 L32 13 C32 12.5 32.5 12 33 12 L37 12 Z" fill="#10B981" stroke="white" stroke-width="1" />
  <path d="M35 15.5 L36.5 17 L39 14.5" stroke="white" stroke-width="1.5" stroke-linecap="round" stroke-linejoin="round" />
</svg>
